<?xml version="1.0" encoding="utf-8"?>
<!-- Generator: Adobe Illustrator 27.5.0, SVG Export Plug-In . SVG Version: 6.00 Build 0)  -->
<svg version="1.1" xmlns="http://www.w3.org/2000/svg" xmlns:xlink="http://www.w3.org/1999/xlink" x="0px" y="0px"
	 viewBox="0 0 500 500" style="enable-background:new 0 0 500 500;" xml:space="preserve">
<g id="BACKGROUND">
	<g>
		<g>
			<g style="opacity:0.41;">
				<g>
					<g>
						<path style="fill:#E1E2FE;" d="M478.851,296.7c0.428-7.371,0.236-14.775-0.594-22.107
							c-3.903-34.45-21.577-66.935-47.59-89.856c-9.281-8.177-19.84-15.503-25.88-26.297c-10.171-18.178-9.4-39.069-22.024-57.017
							c-12.638-17.969-31.055-31.982-51.824-39.179c-61.926-21.458-148.625,13.48-140.819,88.091
							c0.028,0.268,0.058,0.657,0.091,1.149c1.038,15.498-11.126,28.529-26.607,28.896c-57.135,1.356-106.316,45.407-116.84,101.207
							c-6.768,35.885,4.314,75.218,30.564,100.604c19.595,18.95,45.885,29.36,72.188,36.513
							c52.739,14.343,108.237,17.349,162.615,11.865c50.901-5.134,104.594-19.767,137.513-58.928
							C467.207,350.75,477.267,323.96,478.851,296.7z"/>
					</g>
				</g>
			</g>
			<g style="opacity:0.31;">
				
					<ellipse transform="matrix(0.9252 -0.3796 0.3796 0.9252 -0.2997 85.6974)" style="fill:#E1E2FE;" cx="217.158" cy="43.609" rx="13.293" ry="13.293"/>
			</g>
			<g style="opacity:0.31;">
				<circle style="fill:#E1E2FE;" cx="396.781" cy="35.502" r="6.859"/>
			</g>
			<g style="opacity:0.31;">
				
					<ellipse transform="matrix(0.6639 -0.7478 0.7478 0.6639 -2.8827 140.3211)" style="fill:#E1E2FE;" cx="154.659" cy="73.367" rx="9.191" ry="9.191"/>
			</g>
			<g style="opacity:0.31;">
				<circle style="fill:#E1E2FE;" cx="48.677" cy="406.698" r="20.927"/>
			</g>
		</g>
	</g>
	<g>
		<g>
			<path style="opacity:0.47;fill:#ECF1F7;" d="M480.514,81.951c5.966-11.62,1.381-25.876-10.239-31.842
				c-11.62-5.965-33.95-5.526-39.916,6.094c-5.966,11.62,11.919,21.593,19.211,32.429
				C459.741,103.746,474.548,93.571,480.514,81.951z"/>
			<path style="opacity:0.47;fill:#E1E2FE;" d="M429.703,439.102c8.408,5.428,19.623,3.013,25.051-5.395s6.784-25.465-1.624-30.893
				c-8.408-5.428-17.364,7.452-26.178,12.191C414.659,421.615,421.295,433.674,429.703,439.102z"/>
			<path style="opacity:0.47;fill:#E1E2FE;" d="M86.536,28.634c-9.248-8.588-23.706-8.053-32.294,1.195
				c-8.588,9.248-14.02,30.131-4.772,38.719c9.248,8.588,23.201-5.438,35.187-9.386C101.375,53.655,95.784,37.222,86.536,28.634z"/>
		</g>
		<g>
			<path style="opacity:0.47;fill:#E1E2FE;" d="M35.561,128.463c-8.244,17.898-10.496,38.532-6.54,57.822
				c4.65,22.678,18.769,40.101,13.87,64.294c-2.984,14.736-3.731,28.387-5.244,42.968c-3.107,29.94,16.332,56.321,40.448,70.566
				c19.587,11.57,42.55,15.911,65.069,15.603c20.268-0.278,40.5-4.021,60.14-9.053c18.927-4.85,37.432-11.24,57.271-9.224
				c16.5,1.677,31.36,8.81,46.726,14.129c36.685,12.699,81.124,14.49,114.67-4.842c21.529-12.406,36.598-32.555,43.281-54.217
				c5.341-17.312,6.019-33.501,2.016-51.175c-4.111-18.146-11.05-36.439-8.895-55.347c1.502-13.176,7.528-25.893,6.424-39.108
				c-0.734-8.781-4.6-17.019-9.328-24.454c-17.262-27.149-46.166-45.326-76.74-55.341c-28.773-9.425-58.446-16.251-88.402-13.983
				c-61.936,4.688-74.562-5.149-137.858-18.687c-40.863-8.74-86.572,22.415-110.484,58.507
				C39.545,120.6,37.404,124.463,35.561,128.463z"/>
			<g>
				<path style="opacity:0.81;fill:#E1E2FE;" d="M78.173,156.356c-1.27,14.292,3.55,29.02-0.48,43.174
					c-4.824,16.945-18.787,29.638-24.479,46.275c-8.411,24.584-8.007,52.131,2.207,76.087c4.923,11.545,12.114,22.275,21.934,29.695
					c15.139,11.439,34.975,13.948,53.63,12.497c27.764-2.159,57.06-14.179,84.975-10.901c15.404,1.809,20.108,18.481,28.064,29.479
					c8.998,12.439,21.252,22.208,34.799,28.712c24.952,11.978,54.898,13.112,80.4,2.251c27.227-11.596,50.958-39.913,49.398-71.938
					c-0.722-14.815-6.652-29.53-3.907-44.088c3.446-18.269,17.211-34.917,27.186-49.802c11.016-16.439,17.685-36.043,18.993-56.043
					c0.015-0.227,0.029-0.454,0.043-0.68c2.045-34.503-19.717-65.971-52.551-76.769c0,0-69.859-22.975-69.862-22.976
					C257.638,68.015,186.813,68.786,121.636,103c-14.104,7.404-37.069,29.463-41.799,44.674
					C78.945,150.544,78.432,153.441,78.173,156.356z"/>
			</g>
		</g>
	</g>
	<circle style="opacity:0.58;fill:#3E479B;" cx="467.651" cy="381.579" r="4.5"/>
	<circle style="opacity:0.58;fill:#3E479B;" cx="259.775" cy="30.861" r="4.5"/>
	<circle style="opacity:0.58;fill:#3E479B;" cx="97.207" cy="423.078" r="4.5"/>
	<circle style="opacity:0.58;fill:#EF929C;" cx="381.238" cy="442.001" r="3.5"/>
	<circle style="opacity:0.58;fill:#EF929C;" cx="32.25" cy="367.126" r="4.5"/>
	<circle style="opacity:0.58;fill:#3E479B;" cx="356.33" cy="43.609" r="3.5"/>
	<circle style="opacity:0.58;fill:#3E479B;" cx="120.821" cy="80.046" r="1.5"/>
	<path style="opacity:0.58;fill:#EF929C;" d="M479.071,124.972c-0.623,2.919-3.495,4.779-6.413,4.156
		c-2.919-0.623-4.779-3.495-4.156-6.413c0.623-2.919,3.495-4.779,6.413-4.156C477.834,119.182,479.695,122.053,479.071,124.972z"/>
	<path style="opacity:0.58;fill:#EF929C;" d="M108.072,37.924c-0.244,1.145-1.37,1.874-2.515,1.63
		c-1.145-0.244-1.874-1.37-1.63-2.515c0.244-1.145,1.37-1.874,2.515-1.63C107.587,35.653,108.317,36.779,108.072,37.924z"/>
	<path style="opacity:0.58;fill:#3E479B;" d="M445.83,29.02c-0.208,0.973-1.165,1.593-2.138,1.385s-1.593-1.165-1.385-2.138
		c0.208-0.973,1.165-1.593,2.138-1.385C445.418,27.09,446.038,28.047,445.83,29.02z"/>
	<path style="opacity:0.58;fill:#3E479B;" d="M64.778,458.645c-0.208,0.973-1.165,1.593-2.138,1.385s-1.593-1.165-1.385-2.138
		c0.208-0.973,1.165-1.593,2.138-1.385C64.366,456.715,64.986,457.672,64.778,458.645z"/>
</g>
<g id="OBJECTS">
	<g>
		<path style="fill:#FFFFFF;" d="M425.842,314.418l-110.07-23.248c-7.883-1.665-12.924-9.405-11.259-17.288l18.169-86.024
			l138.617,29.277L443.13,303.16C441.465,311.043,433.725,316.083,425.842,314.418z"/>
		<g>
			
				<rect x="388.394" y="250.948" transform="matrix(-0.2067 0.9784 -0.9784 -0.2067 772.0443 -104.4481)" style="fill:none;stroke:#F7A9B4;stroke-width:2;stroke-miterlimit:10;" width="79.947" height="19.668"/>
			<g>
				
					<rect x="323.532" y="210.885" transform="matrix(0.9784 0.2067 -0.2067 0.9784 60.0731 -73.3992)" style="fill:none;stroke:#F7A9B4;stroke-width:2;stroke-miterlimit:10;" width="115.707" height="79.948"/>
				
					<rect x="329.76" y="211.536" transform="matrix(0.9784 0.2067 -0.2067 0.9784 54.1132 -75.3226)" style="fill:none;stroke:#F7A9B4;stroke-width:2;stroke-miterlimit:10;" width="115.707" height="19.668"/>
				
					<rect x="321.482" y="250.73" transform="matrix(0.9784 0.2067 -0.2067 0.9784 62.0341 -72.7659)" style="fill:none;stroke:#F7A9B4;stroke-width:2;stroke-miterlimit:10;" width="115.707" height="19.668"/>
				
					<rect x="351.006" y="243.052" transform="matrix(-0.2067 0.9784 -0.9784 -0.2067 719.2038 -77.3957)" style="fill:none;stroke:#F7A9B4;stroke-width:2;stroke-miterlimit:10;" width="79.947" height="19.668"/>
				
					<rect x="313.522" y="235.135" transform="matrix(-0.2067 0.9784 -0.9784 -0.2067 666.2277 -50.2736)" style="fill:none;stroke:#F7A9B4;stroke-width:2;stroke-miterlimit:10;" width="79.947" height="19.668"/>
			</g>
		</g>
		<g>
			<path style="fill:#F7A9B4;" d="M461.299,217.136l-138.617-29.277l3.678-17.415c0.892-4.222,5.038-6.922,9.26-6.031
				l123.326,26.048c4.222,0.892,6.922,5.038,6.03,9.26L461.299,217.136z"/>
			<g>
				<circle style="fill:#F28393;" cx="445.544" cy="197.666" r="4.938"/>
				<path style="fill:#FFFFFF;" d="M445.376,198.464L445.376,198.464c-1.288-0.272-2.112-1.537-1.84-2.825l2.35-11.128
					c0.272-1.288,1.537-2.112,2.825-1.84l0,0c1.288,0.272,2.112,1.537,1.84,2.825l-2.35,11.128
					C447.929,197.913,446.664,198.736,445.376,198.464z"/>
			</g>
			<g>
				
					<ellipse transform="matrix(0.9984 -0.0572 0.0572 0.9984 -9.5164 19.9771)" style="fill:#F28393;" cx="344.357" cy="176.294" rx="4.938" ry="4.938"/>
				<path style="fill:#FFFFFF;" d="M344.188,177.092L344.188,177.092c-1.288-0.272-2.112-1.537-1.84-2.825l2.35-11.128
					c0.272-1.288,1.537-2.112,2.825-1.84l0,0c1.288,0.272,2.112,1.537,1.84,2.825l-2.35,11.128
					C346.741,176.541,345.476,177.364,344.188,177.092z"/>
			</g>
			<g>
				<path style="fill:#F28393;" d="M374.865,182.738c-0.563,2.668-3.184,4.375-5.852,3.811s-4.375-3.184-3.811-5.852
					c0.564-2.668,3.184-4.375,5.852-3.811C373.723,177.449,375.429,180.07,374.865,182.738z"/>
				<path style="fill:#FFFFFF;" d="M369.865,182.516L369.865,182.516c-1.288-0.272-2.112-1.537-1.84-2.825l2.35-11.128
					c0.272-1.288,1.537-2.112,2.825-1.84l0,0c1.288,0.272,2.112,1.537,1.84,2.825l-2.35,11.128
					C372.418,181.964,371.153,182.788,369.865,182.516z"/>
			</g>
			<g>
				
					<ellipse transform="matrix(0.976 -0.218 0.218 0.976 -31.8244 96.3118)" style="fill:#F28393;" cx="420.638" cy="192.406" rx="4.938" ry="4.938"/>
				<path style="fill:#FFFFFF;" d="M420.47,193.204L420.47,193.204c-1.288-0.272-2.112-1.537-1.84-2.825l2.35-11.128
					c0.272-1.288,1.537-2.112,2.825-1.84l0,0c1.288,0.272,2.112,1.537,1.84,2.825l-2.35,11.128
					C423.023,192.652,421.758,193.476,420.47,193.204z"/>
			</g>
		</g>
		<path style="fill:none;stroke:#599AF2;stroke-miterlimit:10;" d="M413.791,268.172c-0.647,3.064-3.656,5.023-6.72,4.376
			c-3.064-0.647-5.024-3.656-4.376-6.72c0.647-3.064,3.656-5.024,6.72-4.376C412.478,262.099,414.438,265.108,413.791,268.172z"/>
		<path style="fill:#4C65BA;" d="M402.176,224.267c-0.647,3.064-3.656,5.024-6.72,4.376s-5.024-3.656-4.376-6.72
			c0.647-3.064,3.656-5.023,6.72-4.376C400.864,218.194,402.824,221.203,402.176,224.267z"/>
		<path style="fill:none;stroke:#599AF2;stroke-miterlimit:10;" d="M365.18,217.09c-0.647,3.064-3.656,5.023-6.72,4.376
			s-5.024-3.656-4.376-6.72c0.647-3.064,3.656-5.024,6.72-4.376C363.868,211.017,365.827,214.025,365.18,217.09z"/>
	</g>
	<g>
		<g style="opacity:0.66;">
			<g>
				<g>
					<g>
						<path style="fill:none;stroke:#FFFFFF;stroke-width:2;stroke-linecap:round;stroke-miterlimit:10;" d="M132.216,361.311
							l7.695,2.117c-0.548,5.999,0.241,11.907,2.169,17.373l-6.938,3.944c-3.514,1.998-4.744,6.466-2.746,9.981
							c1.998,3.514,6.466,4.744,9.981,2.746l6.939-3.944c3.71,4.453,8.384,8.152,13.818,10.751l-2.117,7.695
							c-1.072,3.898,1.218,7.927,5.116,8.999l0,0c3.898,1.072,7.927-1.218,8.999-5.116l2.117-7.695
							c5.999,0.547,11.907-0.241,17.373-2.169l3.944,6.939c1.998,3.514,6.466,4.744,9.981,2.746
							c3.514-1.998,4.744-6.466,2.746-9.981l-3.944-6.938c4.453-3.71,8.152-8.384,10.751-13.818l7.695,2.117
							c3.898,1.072,7.927-1.218,8.999-5.116l0,0c1.072-3.898-1.218-7.927-5.116-8.999l-7.695-2.117
							c0.548-5.999-0.241-11.907-2.169-17.373l6.939-3.944c3.514-1.998,4.744-6.467,2.746-9.981
							c-1.998-3.514-6.466-4.744-9.981-2.746l-6.939,3.944c-3.71-4.453-8.383-8.152-13.818-10.751l2.117-7.695
							c1.072-3.898-1.218-7.927-5.116-8.999l0,0c-3.898-1.072-7.927,1.218-8.999,5.116l-2.117,7.695
							c-5.999-0.547-11.907,0.241-17.373,2.169l-3.944-6.939c-1.998-3.514-6.466-4.744-9.981-2.746
							c-3.514,1.998-4.744,6.466-2.746,9.981l3.944,6.938c-4.453,3.71-8.152,8.384-10.751,13.818l-7.695-2.117
							c-3.898-1.072-7.927,1.218-8.999,5.116l0,0C126.028,356.209,128.318,360.238,132.216,361.311z M188.858,338.373
							c15.88,4.369,25.211,20.784,20.842,36.664c-4.369,15.88-20.784,25.211-36.664,20.842
							c-15.88-4.369-25.211-20.784-20.842-36.664C156.563,343.336,172.978,334.004,188.858,338.373z"/>
					</g>
				</g>
				<g>
					<g>
						<path style="fill:none;stroke:#FFFFFF;stroke-width:2;stroke-linecap:round;stroke-miterlimit:10;" d="M287.288,93.385
							l1.679,5.3c-3.714,1.954-6.869,4.654-9.332,7.852l-4.935-2.561c-2.5-1.297-5.578-0.322-6.875,2.178
							c-1.297,2.5-0.322,5.578,2.178,6.875l4.935,2.561c-1.197,3.856-1.588,7.99-1.047,12.151l-5.3,1.679
							c-2.685,0.851-4.172,3.716-3.321,6.401l0,0c0.85,2.685,3.716,4.172,6.401,3.321l5.3-1.679
							c1.954,3.714,4.653,6.869,7.852,9.332l-2.561,4.935c-1.297,2.5-0.322,5.578,2.178,6.875s5.578,0.322,6.875-2.178l2.561-4.935
							c3.856,1.197,7.99,1.588,12.151,1.047l1.679,5.3c0.85,2.685,3.716,4.172,6.401,3.321l0,0c2.685-0.851,4.172-3.716,3.321-6.401
							l-1.679-5.3c3.714-1.954,6.869-4.654,9.332-7.852l4.935,2.561c2.5,1.297,5.578,0.322,6.875-2.178
							c1.297-2.5,0.322-5.578-2.178-6.875l-4.935-2.561c1.197-3.856,1.588-7.99,1.047-12.151l5.3-1.679
							c2.685-0.85,4.172-3.716,3.321-6.401l0,0c-0.85-2.685-3.716-4.172-6.401-3.321l-5.3,1.679
							c-1.954-3.714-4.654-6.868-7.852-9.332l2.561-4.935c1.297-2.5,0.322-5.578-2.178-6.875c-2.5-1.297-5.578-0.322-6.875,2.178
							l-2.56,4.935c-3.856-1.197-7.99-1.588-12.152-1.047l-1.679-5.3c-0.851-2.685-3.716-4.172-6.401-3.321l0,0
							C287.924,87.834,286.437,90.7,287.288,93.385z M322.163,117.799c3.465,10.938-2.593,22.613-13.531,26.078
							c-10.938,3.465-22.613-2.593-26.078-13.531c-3.465-10.938,2.593-22.614,13.531-26.078
							C307.022,100.803,318.698,106.861,322.163,117.799z"/>
					</g>
				</g>
				<g>
					<g>
						<path style="fill:none;stroke:#FFFFFF;stroke-width:2;stroke-linecap:round;stroke-miterlimit:10;" d="M170.812,112.02
							l7.395,1.073c0.188,5.637,1.606,11.034,4.033,15.888l-5.988,4.47c-3.033,2.264-3.656,6.558-1.392,9.591
							c2.264,3.033,6.558,3.656,9.591,1.392l5.988-4.47c3.964,3.706,8.735,6.6,14.086,8.383l-1.073,7.395
							c-0.544,3.746,2.052,7.223,5.798,7.767l0,0c3.746,0.544,7.223-2.052,7.767-5.798l1.073-7.395
							c5.637-0.188,11.034-1.606,15.888-4.033l4.47,5.988c2.264,3.033,6.558,3.656,9.591,1.392c3.033-2.264,3.656-6.558,1.392-9.591
							l-4.47-5.988c3.706-3.964,6.6-8.735,8.383-14.086l7.395,1.073c3.746,0.544,7.223-2.052,7.766-5.798l0,0
							c0.544-3.746-2.052-7.223-5.798-7.767l-7.395-1.073c-0.188-5.637-1.606-11.034-4.033-15.888l5.988-4.47
							c3.033-2.264,3.656-6.558,1.392-9.591c-2.264-3.033-6.558-3.656-9.591-1.392l-5.988,4.47c-3.964-3.706-8.735-6.6-14.086-8.383
							l1.073-7.395c0.544-3.746-2.052-7.223-5.798-7.766l0,0c-3.746-0.544-7.223,2.052-7.767,5.798l-1.073,7.395
							c-5.637,0.188-11.034,1.606-15.888,4.033l-4.47-5.988c-2.264-3.033-6.558-3.656-9.592-1.392
							c-3.033,2.264-3.656,6.558-1.392,9.591l4.47,5.988c-3.706,3.964-6.6,8.735-8.383,14.086l-7.395-1.073
							c-3.746-0.544-7.223,2.052-7.766,5.798l0,0C164.47,107.999,167.066,111.477,170.812,112.02z M220.77,84.133
							c15.26,2.215,25.835,16.381,23.62,31.641c-2.215,15.26-16.381,25.836-31.641,23.621c-15.26-2.215-25.835-16.381-23.62-31.641
							C191.343,92.494,205.509,81.918,220.77,84.133z"/>
					</g>
				</g>
				<g style="opacity:0.81;">
					
						<line style="fill:none;stroke:#FFFFFF;stroke-width:2;stroke-linecap:round;stroke-miterlimit:10;" x1="379.25" y1="342.902" x2="409.797" y2="342.902"/>
					
						<line style="fill:none;stroke:#FFFFFF;stroke-width:2;stroke-linecap:round;stroke-miterlimit:10;" x1="379.25" y1="360.211" x2="409.797" y2="360.211"/>
					<g>
						<g>
							<g>
								<g>
									<path style="fill:none;stroke:#FFFFFF;stroke-width:2;stroke-linecap:round;stroke-miterlimit:10;" d="M309.375,377.691
										H433.69c0.945,0,1.711-0.766,1.711-1.711v-52.728c0-0.945-0.766-1.711-1.711-1.711H309.375
										c-0.945,0-1.712,0.766-1.712,1.711v52.728C307.664,376.924,308.43,377.691,309.375,377.691z"/>
								</g>
								<g style="opacity:0.66;">
									<path style="fill:none;stroke:#FFFFFF;stroke-width:2;stroke-linecap:round;stroke-miterlimit:10;" d="M309.375,377.691
										H433.69c0.945,0,1.711-0.766,1.711-1.711v-52.728c0-0.945-0.766-1.711-1.711-1.711H309.375
										c-0.945,0-1.712,0.766-1.712,1.711v52.728C307.664,376.924,308.43,377.691,309.375,377.691z"/>
								</g>
							</g>
						</g>
						
							<line style="fill:none;stroke:#FFFFFF;stroke-width:2;stroke-linecap:round;stroke-miterlimit:10;" x1="325.783" y1="334.502" x2="409.797" y2="334.502"/>
						
							<line style="fill:none;stroke:#FFFFFF;stroke-width:2;stroke-linecap:round;stroke-miterlimit:10;" x1="325.783" y1="351.302" x2="409.797" y2="351.302"/>
						
							<line style="fill:none;stroke:#FFFFFF;stroke-width:2;stroke-linecap:round;stroke-miterlimit:10;" x1="325.783" y1="342.902" x2="371.078" y2="342.902"/>
						
							<line style="fill:none;stroke:#FFFFFF;stroke-width:2;stroke-linecap:round;stroke-miterlimit:10;" x1="325.783" y1="360.211" x2="371.078" y2="360.211"/>
						
							<line style="fill:none;stroke:#FFFFFF;stroke-width:2;stroke-linecap:round;stroke-miterlimit:10;" x1="325.783" y1="368.229" x2="356.33" y2="368.229"/>
					</g>
				</g>
			</g>
		</g>
		<g style="opacity:0.81;">
			
				<line style="fill:none;stroke:#FFFFFF;stroke-width:2;stroke-linecap:round;stroke-miterlimit:10;" x1="109.361" y1="151.566" x2="78.814" y2="151.566"/>
			
				<line style="fill:none;stroke:#FFFFFF;stroke-width:2;stroke-linecap:round;stroke-miterlimit:10;" x1="109.361" y1="134.257" x2="78.814" y2="134.257"/>
			<g>
				<g>
					<g>
						<g>
							<path style="fill:none;stroke:#FFFFFF;stroke-width:2;stroke-linecap:round;stroke-miterlimit:10;" d="M179.236,116.777
								H54.921c-0.945,0-1.711,0.766-1.711,1.711v52.728c0,0.945,0.766,1.711,1.711,1.711h124.315c0.945,0,1.712-0.766,1.712-1.711
								v-52.728C180.947,117.543,180.181,116.777,179.236,116.777z"/>
						</g>
						<g style="opacity:0.66;">
							<path style="fill:none;stroke:#FFFFFF;stroke-width:2;stroke-linecap:round;stroke-miterlimit:10;" d="M179.236,116.777
								H54.921c-0.945,0-1.711,0.766-1.711,1.711v52.728c0,0.945,0.766,1.711,1.711,1.711h124.315c0.945,0,1.712-0.766,1.712-1.711
								v-52.728C180.947,117.543,180.181,116.777,179.236,116.777z"/>
						</g>
					</g>
				</g>
				
					<line style="fill:none;stroke:#FFFFFF;stroke-width:2;stroke-linecap:round;stroke-miterlimit:10;" x1="162.828" y1="159.966" x2="78.814" y2="159.966"/>
				
					<line style="fill:none;stroke:#FFFFFF;stroke-width:2;stroke-linecap:round;stroke-miterlimit:10;" x1="162.828" y1="143.166" x2="78.814" y2="143.166"/>
				
					<line style="fill:none;stroke:#FFFFFF;stroke-width:2;stroke-linecap:round;stroke-miterlimit:10;" x1="162.828" y1="151.566" x2="117.533" y2="151.566"/>
				
					<line style="fill:none;stroke:#FFFFFF;stroke-width:2;stroke-linecap:round;stroke-miterlimit:10;" x1="162.828" y1="134.257" x2="117.533" y2="134.257"/>
				
					<line style="fill:none;stroke:#FFFFFF;stroke-width:2;stroke-linecap:round;stroke-miterlimit:10;" x1="162.828" y1="126.238" x2="132.281" y2="126.238"/>
			</g>
		</g>
	</g>
	<g>
		<path style="fill:#FFFFFF;" d="M366.279,163.167l-5.387,2.791l-33.183-9.758l-2.967-5.195c-12.301-21.54-15.298-47.162-8.3-70.96
			l0,0l95.26,28.014h0C404.706,131.852,388.299,151.758,366.279,163.167z"/>
		<path style="fill:#FFFFFF;" d="M322.434,159.025l5.387-2.791l33.183,9.758l2.967,5.195c12.301,21.54,15.298,47.162,8.299,70.96
			l0,0l-95.26-28.014l0,0C284.007,190.339,300.415,170.434,322.434,159.025z"/>
		<path style="opacity:0.4;fill:#F7A9B4;" d="M411.703,108.06L411.703,108.06l-95.26-28.014v0c-6.998,23.798-4.002,49.419,8.3,70.96
			l2.967,5.195l0.113,0.033l-5.387,2.791c-22.02,11.41-38.427,31.315-45.424,55.108l0,0l95.26,28.014h0
			c6.998-23.798,4.002-49.419-8.299-70.96l-2.967-5.195l-0.113-0.033l5.387-2.791C388.299,151.758,404.706,131.852,411.703,108.06z"
			/>
		<path style="opacity:0.62;fill:#FFFFFF;" d="M406.058,106.4L406.058,106.4L322.63,81.865l0,0
			c-6.998,23.798-5.206,49.065,4.965,69.979l2.453,5.044l0.099,0.029l-4.865,2.945c-19.886,12.037-35.087,32.297-42.084,56.09v0
			l83.428,24.534l0,0c6.998-23.798,5.206-49.065-4.965-69.979l-2.453-5.044l-0.099-0.029l4.865-2.945
			C383.86,150.452,399.061,130.193,406.058,106.4z"/>
		<path style="fill:#F28393;" d="M349.154,162.507L349.154,162.507l-9.594-2.821l0,0c-2.635-3.486-4.833-7.282-6.484-11.328
			c-6.975-17.094-11.843-37.795-6.42-56.234l0,0l69.922,20.563v0c-5.43,18.466-21.534,33.022-36.858,43.545
			C356.338,158.553,352.803,160.634,349.154,162.507z"/>
		<path style="opacity:0.5;fill:#F7A9B4;" d="M334.456,94.417L334.456,94.417l62.121,18.269v0
			c-4.774,16.234-20.14,30.852-32.871,40.795C348.553,165.315,324.026,123.183,334.456,94.417z"/>
		<path style="fill:#F7A9B4;" d="M361.924,102.495L361.924,102.495l34.654,10.191l0,0c-2.663,9.056-7.664,18.69-14.766,24.236
			C373.358,143.523,356.105,118.542,361.924,102.495z"/>
		
			<rect x="331.938" y="160.028" transform="matrix(0.9594 0.2821 -0.2821 0.9594 66.2544 -87.491)" style="fill:#F28393;" width="10" height="52.588"/>
		<path style="fill:#F28393;" d="M355.037,220.841l-18.444-18.127l-8.916-2.622l-25.05,5.632
			c-6.199,1.394-11.155,6.038-12.948,12.134l0,0l69.922,20.563l0,0C361.44,232.167,359.686,225.41,355.037,220.841z"/>
		<path style="fill:#4C65BA;" d="M419.265,110.284L308.88,77.822c-1.371-0.403-2.156-1.842-1.753-3.213l3.319-11.287
			c0.403-1.371,1.842-2.156,3.213-1.753l110.385,32.462c1.371,0.403,2.156,1.842,1.753,3.213l-3.319,11.287
			C422.075,109.902,420.636,110.687,419.265,110.284z"/>
		<path style="opacity:0.41;fill:#3E479B;" d="M419.265,110.284L308.88,77.822c-1.371-0.403-2.156-1.842-1.753-3.213l0.929-3.16
			c0.403-1.371,1.842-2.156,3.213-1.753l110.385,32.462c1.371,0.403,2.156,1.842,1.753,3.213l-0.929,3.16
			C422.075,109.902,420.636,110.687,419.265,110.284z"/>
		<path style="fill:#4C65BA;" d="M269.448,211.908l110.385,32.462c1.371,0.403,2.156,1.842,1.753,3.213l-3.319,11.287
			c-0.403,1.371-1.842,2.156-3.213,1.753l-110.385-32.462c-1.371-0.403-2.156-1.842-1.753-3.213l3.319-11.287
			C266.638,212.29,268.077,211.505,269.448,211.908z"/>
		<path style="opacity:0.41;fill:#3E479B;" d="M269.448,211.908l110.385,32.462c1.371,0.403,2.156,1.842,1.753,3.213l-0.929,3.16
			c-0.403,1.371-1.842,2.156-3.213,1.753l-110.385-32.462c-1.371-0.403-2.156-1.842-1.753-3.213l0.929-3.16
			C266.638,212.29,268.077,211.505,269.448,211.908z"/>
	</g>
	<g>
		<g>
			<polygon style="fill:#3E479B;" points="235.024,320.432 234.298,320.611 184.399,332.905 183.673,333.084 180.947,373.071 
				182.996,372.566 253.965,355.081 256.014,354.576 			"/>
			<polygon style="opacity:0.35;fill:#4C65BA;" points="237.072,323.763 237.072,323.763 183.407,336.986 182.45,351.041 
				244.45,335.766 244.606,335.727 			"/>
			<path style="fill:#3E479B;" d="M324.087,286.024L88.819,343.989c-4.432,1.092-8.91-1.616-10.002-6.048L44.822,199.962
				c-1.092-4.432,1.616-8.91,6.048-10.002l235.267-57.965c4.432-1.092,8.91,1.616,10.002,6.048l33.995,137.979
				C331.226,280.454,328.519,284.932,324.087,286.024z"/>
			<path style="fill:#FFFFFF;" d="M315.394,270.313L89.219,326.038c-0.951,0.234-1.912-0.347-2.147-1.298L56.738,201.623
				c-0.234-0.951,0.347-1.912,1.298-2.147l226.175-55.725c0.951-0.234,1.912,0.347,2.147,1.298l30.334,123.118
				C316.926,269.117,316.345,270.079,315.394,270.313z"/>
			<path style="fill:#4C65BA;" d="M273.829,356.899l-107.578,26.505l0,0c-1.476-5.991,2.184-12.045,8.175-13.521l85.882-21.16
				C266.299,347.247,272.353,350.907,273.829,356.899L273.829,356.899z"/>
			<g>
				<path style="fill:#599AF2;" d="M287.404,156.706L61.228,212.431c-0.951,0.234-1.912-0.347-2.147-1.298l-2.343-9.511
					c-0.234-0.951,0.347-1.912,1.298-2.147l226.175-55.725c0.951-0.234,1.912,0.347,2.147,1.298l2.343,9.511
					C288.936,155.511,288.355,156.472,287.404,156.706z"/>
				<path style="fill:none;stroke:#ECF1F7;stroke-miterlimit:10;" d="M262.648,155.477c0.247,1.003-0.366,2.016-1.368,2.263
					c-1.003,0.247-2.016-0.365-2.263-1.368c-0.247-1.003,0.366-2.016,1.368-2.263C261.388,153.861,262.401,154.474,262.648,155.477z
					"/>
				<path style="fill:none;stroke:#ECF1F7;stroke-miterlimit:10;" d="M282.015,150.705c0.247,1.003-0.366,2.016-1.368,2.263
					c-1.003,0.247-2.016-0.366-2.263-1.368c-0.247-1.003,0.366-2.016,1.368-2.263C280.755,149.09,281.768,149.702,282.015,150.705z"
					/>
				<path style="fill:none;stroke:#ECF1F7;stroke-miterlimit:10;" d="M272.332,153.091c0.247,1.003-0.366,2.016-1.368,2.263
					c-1.003,0.247-2.016-0.366-2.263-1.368c-0.247-1.003,0.366-2.016,1.368-2.263C271.072,151.475,272.085,152.088,272.332,153.091z
					"/>
			</g>
			<path style="fill:#4C65BA;" d="M328.426,301.256L92.053,359.493c-4.126,1.017-8.586-2.681-9.96-8.259l-6.451-26.185
				l251.317-61.92l6.452,26.185C334.784,294.893,332.553,300.239,328.426,301.256z"/>
			<path style="fill:none;stroke:#FFFFFF;stroke-miterlimit:10;" d="M214.378,309.224c1.199,4.868-1.775,9.786-6.642,10.986
				c-4.868,1.199-9.786-1.775-10.986-6.642c-1.199-4.868,1.775-9.786,6.643-10.986C208.26,301.382,213.178,304.356,214.378,309.224z
				"/>
		</g>
		<g>
			<g>
				<path style="fill:none;stroke:#599AF2;stroke-miterlimit:10;" d="M144.272,295.097l-2.63-2.162
					c1.256-2.242,1.975-4.68,2.174-7.145l3.388-0.331c1.716-0.167,2.972-1.695,2.804-3.411c-0.168-1.716-1.695-2.972-3.411-2.804
					l-3.388,0.331c-0.671-2.379-1.849-4.633-3.515-6.589l2.162-2.63c1.095-1.332,0.903-3.3-0.429-4.395v0
					c-1.332-1.095-3.3-0.903-4.395,0.429l-2.162,2.63c-2.242-1.256-4.68-1.975-7.145-2.174l-0.331-3.388
					c-0.168-1.716-1.695-2.972-3.411-2.804c-1.716,0.168-2.972,1.695-2.804,3.411l0.331,3.388c-2.379,0.671-4.633,1.849-6.589,3.515
					l-2.63-2.162c-1.332-1.095-3.3-0.903-4.395,0.429h0c-1.095,1.332-0.903,3.3,0.429,4.395l2.63,2.162
					c-1.256,2.242-1.975,4.68-2.174,7.145l-3.388,0.331c-1.716,0.168-2.972,1.695-2.804,3.411c0.167,1.716,1.695,2.972,3.411,2.804
					l3.388-0.331c0.671,2.379,1.849,4.633,3.515,6.589l-2.162,2.63c-1.095,1.332-0.903,3.3,0.429,4.395l0,0
					c1.332,1.095,3.3,0.903,4.395-0.429l2.162-2.63c2.242,1.256,4.68,1.975,7.145,2.174l0.331,3.388
					c0.168,1.716,1.695,2.972,3.411,2.804c1.716-0.167,2.972-1.695,2.804-3.411l-0.331-3.388c2.38-0.671,4.633-1.849,6.589-3.515
					l2.63,2.162c1.332,1.095,3.3,0.903,4.395-0.429l0,0C145.796,298.16,145.604,296.192,144.272,295.097z M118.22,294.19
					c-5.427-4.462-6.21-12.478-1.748-17.905c4.462-5.427,12.478-6.21,17.905-1.748c5.427,4.462,6.21,12.478,1.748,17.905
					C131.664,297.869,123.647,298.651,118.22,294.19z"/>
			</g>
		</g>
		<g>
			<g>
				<g>
					<path style="fill:#F7A9B4;" d="M94.47,274.899l0.595-2.462c1.909,0.114,3.775-0.195,5.49-0.861l1.32,2.162
						c0.669,1.095,2.099,1.441,3.194,0.772c1.095-0.669,1.441-2.098,0.772-3.194l-1.32-2.162c1.376-1.221,2.503-2.74,3.273-4.49
						l2.462,0.595c1.247,0.302,2.503-0.465,2.804-1.712l0,0c0.301-1.247-0.465-2.503-1.712-2.804l-2.462-0.595
						c0.114-1.909-0.195-3.775-0.861-5.49l2.162-1.32c1.095-0.669,1.441-2.099,0.772-3.194c-0.669-1.095-2.099-1.441-3.194-0.772
						l-2.162,1.32c-1.221-1.376-2.741-2.503-4.49-3.273l0.595-2.462c0.301-1.247-0.465-2.503-1.712-2.804l0,0
						c-1.247-0.301-2.502,0.465-2.804,1.712l-0.595,2.462c-1.909-0.114-3.775,0.195-5.49,0.861l-1.32-2.162
						c-0.669-1.095-2.098-1.441-3.194-0.772c-1.095,0.669-1.441,2.099-0.772,3.194l1.32,2.162c-1.376,1.221-2.503,2.741-3.273,4.49
						l-2.462-0.595c-1.247-0.301-2.502,0.465-2.804,1.712l0,0c-0.301,1.247,0.465,2.503,1.712,2.804l2.462,0.595
						c-0.114,1.909,0.195,3.775,0.861,5.49l-2.162,1.32c-1.095,0.669-1.441,2.099-0.772,3.194c0.669,1.095,2.099,1.441,3.194,0.772
						l2.162-1.32c1.221,1.376,2.741,2.503,4.49,3.273l-0.595,2.462c-0.301,1.247,0.465,2.503,1.712,2.804l0,0
						C92.913,276.913,94.168,276.146,94.47,274.899z M86.63,257.159c1.228-5.081,6.343-8.204,11.424-6.976
						c5.081,1.228,8.204,6.343,6.976,11.424c-1.228,5.081-6.343,8.204-11.424,6.976C88.525,267.354,85.402,262.24,86.63,257.159z"/>
				</g>
			</g>
			<g>
				<g>
					<path style="fill:none;stroke:#F7A9B4;stroke-miterlimit:10;" d="M295.449,226.403L295.449,226.403
						c0.964-0.846,1.06-2.314,0.214-3.279l-1.671-1.904c1.192-1.495,2.014-3.199,2.456-4.985l2.528,0.165
						c1.28,0.084,2.386-0.887,2.47-2.167c0.083-1.28-0.887-2.386-2.167-2.469l-2.528-0.165c-0.207-1.828-0.8-3.624-1.788-5.261
						l1.904-1.671c0.964-0.846,1.06-2.314,0.214-3.279l0,0c-0.846-0.964-2.314-1.06-3.278-0.214l-1.904,1.671
						c-1.495-1.192-3.199-2.014-4.985-2.456l0.165-2.528c0.083-1.28-0.887-2.386-2.167-2.469c-1.28-0.083-2.386,0.887-2.469,2.167
						l-0.165,2.528c-1.828,0.207-3.624,0.8-5.261,1.788l-1.671-1.904c-0.846-0.964-2.314-1.06-3.279-0.214l0,0
						c-0.964,0.846-1.06,2.314-0.214,3.279l1.671,1.904c-1.192,1.495-2.014,3.199-2.456,4.984l-2.528-0.165
						c-1.28-0.083-2.386,0.887-2.469,2.167c-0.083,1.28,0.887,2.386,2.167,2.469l2.528,0.165c0.207,1.828,0.8,3.624,1.788,5.261
						l-1.904,1.671c-0.964,0.846-1.06,2.314-0.214,3.279l0,0c0.846,0.964,2.314,1.06,3.279,0.214l1.904-1.671
						c1.495,1.192,3.199,2.014,4.984,2.456l-0.165,2.528c-0.083,1.28,0.887,2.386,2.167,2.469c1.28,0.083,2.386-0.887,2.469-2.167
						l0.165-2.528c1.828-0.207,3.624-0.8,5.261-1.788l1.671,1.904C293.017,227.154,294.485,227.249,295.449,226.403z
						 M290.001,220.195c-3.929,3.448-9.909,3.058-13.357-0.871c-3.448-3.929-3.058-9.909,0.871-13.357
						c3.929-3.448,9.909-3.058,13.357,0.871C294.32,210.766,293.93,216.747,290.001,220.195z"/>
				</g>
			</g>
			<g>
				<g>
					<path style="fill:#599AF2;" d="M259.114,271.303L259.114,271.303c1.589,0.671,3.42-0.073,4.091-1.662l1.324-3.136
						c2.506,0.566,5.049,0.562,7.468,0.051l1.281,3.154c0.649,1.598,2.47,2.367,4.068,1.718c1.598-0.649,2.367-2.47,1.718-4.068
						l-1.281-3.154c2.09-1.321,3.915-3.091,5.317-5.244l3.136,1.324c1.589,0.671,3.42-0.073,4.091-1.662l0,0
						c0.671-1.589-0.073-3.42-1.662-4.091l-3.136-1.324c0.566-2.507,0.562-5.049,0.051-7.468l3.154-1.281
						c1.598-0.649,2.367-2.47,1.718-4.068c-0.649-1.598-2.47-2.367-4.068-1.718l-3.154,1.281c-1.321-2.09-3.091-3.915-5.244-5.317
						l1.324-3.136c0.671-1.589-0.073-3.42-1.662-4.091h0c-1.589-0.671-3.42,0.073-4.091,1.662l-1.324,3.136
						c-2.506-0.566-5.049-0.562-7.468-0.051l-1.281-3.154c-0.649-1.598-2.47-2.367-4.068-1.718c-1.598,0.649-2.367,2.47-1.718,4.068
						l1.281,3.154c-2.09,1.321-3.915,3.091-5.317,5.244l-3.136-1.324c-1.589-0.671-3.42,0.073-4.091,1.662l0,0
						c-0.671,1.589,0.073,3.42,1.662,4.091l3.136,1.324c-0.566,2.506-0.562,5.049-0.051,7.468l-3.154,1.281
						c-1.598,0.649-2.367,2.47-1.718,4.068c0.649,1.598,2.47,2.367,4.068,1.718l3.154-1.281c1.321,2.09,3.091,3.915,5.244,5.317
						l-1.324,3.136C256.781,268.8,257.525,270.632,259.114,271.303z M263.433,261.076c-6.472-2.733-9.503-10.195-6.77-16.667
						c2.733-6.472,10.195-9.503,16.667-6.77c6.472,2.733,9.503,10.195,6.77,16.667C277.367,260.778,269.905,263.809,263.433,261.076
						z"/>
				</g>
			</g>
		</g>
		<g>
			
				<ellipse transform="matrix(0.7071 -0.7071 0.7071 0.7071 -85.984 182.1229)" style="fill:#4C65BA;" cx="176.85" cy="194.853" rx="94.122" ry="94.122"/>
			<circle style="fill:#FFFFFF;" cx="176.85" cy="194.853" r="76.814"/>
			<g>
				<g>
					<path style="fill:#3E479B;" d="M162.499,137.149L162.499,137.149c-1.111,0.274-2.234-0.405-2.508-1.517l-2.355-9.56
						c-0.274-1.111,0.405-2.234,1.517-2.508l0,0c1.111-0.274,2.234,0.405,2.508,1.517l2.355,9.56
						C164.29,135.752,163.611,136.875,162.499,137.149z"/>
					<path style="fill:#3E479B;" d="M194.547,266.142L194.547,266.142c-1.111,0.274-2.235-0.405-2.508-1.517l-2.355-9.56
						c-0.274-1.112,0.405-2.234,1.517-2.508l0,0c1.111-0.274,2.234,0.405,2.508,1.517l2.355,9.56
						C196.338,264.745,195.659,265.868,194.547,266.142z"/>
				</g>
				<g>
					<path style="fill:#3E479B;" d="M234.554,180.503L234.554,180.503c-0.274-1.111,0.405-2.234,1.517-2.508l9.56-2.355
						c1.111-0.274,2.235,0.405,2.508,1.517l0,0c0.274,1.111-0.405,2.235-1.517,2.508l-9.56,2.355
						C235.951,182.293,234.828,181.614,234.554,180.503z"/>
					<path style="fill:#3E479B;" d="M105.561,212.551L105.561,212.551c-0.274-1.111,0.405-2.235,1.517-2.508l9.56-2.355
						c1.112-0.274,2.235,0.405,2.508,1.517l0,0c0.274,1.111-0.405,2.234-1.517,2.508l-9.56,2.355
						C106.958,214.341,105.835,213.662,105.561,212.551z"/>
				</g>
				<g>
					<path style="fill:#3E479B;" d="M208.874,141.639L208.874,141.639c-0.98-0.592-1.293-1.867-0.701-2.846l2.595-4.291
						c0.592-0.98,1.867-1.294,2.846-0.701l0,0c0.98,0.592,1.294,1.867,0.701,2.846l-2.595,4.291
						C211.128,141.918,209.853,142.232,208.874,141.639z"/>
					<path style="fill:#3E479B;" d="M140.041,255.98L140.041,255.98c-0.98-0.592-1.294-1.867-0.701-2.846l3.208-5.306
						c0.592-0.98,1.867-1.294,2.846-0.701l0,0c0.98,0.592,1.294,1.867,0.701,2.846l-3.208,5.306
						C142.295,256.259,141.02,256.573,140.041,255.98z"/>
				</g>
				<g>
					<path style="fill:#3E479B;" d="M230.078,226.937L230.078,226.937c0.592-0.98,1.867-1.294,2.846-0.701l4.291,2.595
						c0.98,0.592,1.294,1.867,0.701,2.846l0,0c-0.592,0.98-1.867,1.294-2.846,0.701l-4.291-2.595
						C229.8,229.191,229.486,227.917,230.078,226.937z"/>
					<path style="fill:#3E479B;" d="M115.737,158.104L115.737,158.104c0.592-0.98,1.867-1.294,2.846-0.701l5.306,3.209
						c0.98,0.592,1.294,1.867,0.701,2.846l0,0c-0.592,0.98-1.867,1.294-2.846,0.701l-5.306-3.208
						C115.459,160.358,115.145,159.084,115.737,158.104z"/>
				</g>
			</g>
			<g>
				<path style="fill:#3E479B;" d="M177.047,194.312L177.047,194.312c-0.656,1.08-2.064,1.424-3.144,0.768l-33.945-20.618
					c-1.08-0.656-1.424-2.064-0.768-3.144l0,0c0.656-1.08,2.064-1.424,3.144-0.768l33.945,20.618
					C177.359,191.824,177.703,193.232,177.047,194.312z"/>
				<path style="fill:#3E479B;" d="M177.326,197.159L177.326,197.159c-1.08-0.656-1.424-2.064-0.768-3.144l17.228-28.364
					c0.656-1.08,2.064-1.424,3.144-0.768l0,0c1.08,0.656,1.424,2.064,0.768,3.144l-17.228,28.364
					C179.814,197.471,178.406,197.815,177.326,197.159z"/>
			</g>
			<path style="fill:#4C65BA;" d="M184.905,192.868c1.096,4.449-1.622,8.944-6.071,10.04c-4.449,1.096-8.944-1.622-10.04-6.071
				c-1.096-4.449,1.622-8.944,6.071-10.04C179.314,185.702,183.809,188.42,184.905,192.868z"/>
		</g>
	</g>
	<g>
		
			<rect x="330.516" y="277.928" transform="matrix(0.8982 0.4396 -0.4396 0.8982 160.6322 -122.1487)" style="fill:#4C65BA;" width="27.074" height="15.654"/>
		
			<rect x="332.237" y="278.326" transform="matrix(0.8982 0.4396 -0.4396 0.8982 159.2629 -123.263)" style="opacity:0.35;fill:#3E479B;" width="27.074" height="7.827"/>
		<path style="fill:#3E479B;" d="M359.632,290.111l-28.576-13.985c-0.983-0.481-1.39-1.668-0.909-2.651l2.989-6.107
			c0.481-0.983,1.668-1.39,2.651-0.909l28.576,13.985c0.983,0.481,1.39,1.668,0.909,2.651l-2.989,6.107
			C361.801,290.185,360.615,290.592,359.632,290.111z"/>
		<path style="fill:#F7A9B4;" d="M343.248,330.424l-0.375-0.558c-1.249-1.857-0.756-4.376,1.101-5.625l25.754-17.321
			c1.857-1.249,4.376-0.756,5.625,1.101l0.375,0.558c1.249,1.857,0.756,4.376-1.101,5.625l-25.754,17.321
			C347.016,332.774,344.498,332.281,343.248,330.424z"/>
		<path style="fill:#F7A9B4;" d="M309.379,313.848l0.67-0.046c2.233-0.153,3.919-2.088,3.766-4.321l-2.124-30.964
			c-0.153-2.233-2.088-3.919-4.321-3.766l-0.67,0.046c-2.233,0.153-3.919,2.088-3.766,4.321l2.124,30.964
			C305.211,312.315,307.145,314.001,309.379,313.848z"/>
		
			<ellipse transform="matrix(0.4396 -0.8982 0.8982 0.4396 -137.6953 476.7873)" style="fill:#599AF2;" cx="313.231" cy="348.737" rx="65.552" ry="64.785"/>
		
			<ellipse transform="matrix(0.4396 -0.8982 0.8982 0.4396 -137.6678 476.7889)" style="fill:#FFFFFF;" cx="313.242" cy="348.715" rx="54.769" ry="54.129"/>
		<path style="fill:#4C65BA;" d="M314.989,345.566l-0.332-0.163c-1.106-0.541-1.564-1.877-1.023-2.983l13.078-26.723
			c0.541-1.106,1.877-1.564,2.984-1.023l0.332,0.162c1.106,0.541,1.564,1.877,1.023,2.984l-13.078,26.723
			C317.431,345.649,316.095,346.107,314.989,345.566z"/>
		<path style="fill:#599AF2;" d="M319.739,351.922c-1.78,3.637-6.136,5.159-9.73,3.4c-3.594-1.759-5.065-6.133-3.285-9.77
			c1.78-3.637,6.136-5.159,9.73-3.4C320.048,343.911,321.518,348.285,319.739,351.922z"/>
		<g>
			<g>
				<path style="fill:none;stroke:#3E479B;stroke-miterlimit:10;" d="M331.736,311.159l-0.347-0.17
					c-0.621-0.304-0.878-1.053-0.574-1.674l3.186-6.509c0.304-0.621,1.053-0.878,1.674-0.574l0.347,0.17
					c0.621,0.304,0.878,1.053,0.574,1.674l-3.186,6.509C333.106,311.206,332.356,311.463,331.736,311.159z"/>
				<path style="fill:none;stroke:#3E479B;stroke-miterlimit:10;" d="M291.184,394.431l-0.347-0.17
					c-0.621-0.304-0.878-1.053-0.574-1.674l3.186-6.509c0.304-0.621,1.053-0.878,1.674-0.574l0.347,0.17
					c0.621,0.304,0.878,1.053,0.574,1.674l-3.186,6.509C292.554,394.478,291.805,394.735,291.184,394.431z"/>
			</g>
			<g>
				<path style="fill:none;stroke:#3E479B;stroke-miterlimit:10;" d="M350.602,366.638l0.17-0.347
					c0.304-0.621,1.053-0.878,1.674-0.574l6.51,3.186c0.621,0.304,0.878,1.053,0.574,1.674l-0.17,0.347
					c-0.304,0.621-1.053,0.878-1.674,0.574l-6.51-3.186C350.555,368.008,350.298,367.259,350.602,366.638z"/>
				<path style="fill:none;stroke:#3E479B;stroke-miterlimit:10;" d="M267.33,326.087l0.17-0.347
					c0.304-0.621,1.053-0.878,1.674-0.574l6.509,3.186c0.621,0.304,0.878,1.053,0.574,1.674l-0.17,0.347
					c-0.304,0.621-1.053,0.878-1.674,0.574l-6.509-3.186C267.283,327.457,267.026,326.708,267.33,326.087z"/>
			</g>
			<g>
				<path style="fill:none;stroke:#3E479B;stroke-miterlimit:10;" d="M354.402,334.394l-0.125-0.365
					c-0.224-0.654,0.124-1.365,0.778-1.589l3.671-1.259c0.654-0.224,1.365,0.124,1.589,0.778l0.125,0.366
					c0.224,0.654-0.124,1.365-0.778,1.589l-3.671,1.259C355.338,335.396,354.626,335.047,354.402,334.394z"/>
				<path style="fill:none;stroke:#3E479B;stroke-miterlimit:10;" d="M266.486,364.725l-0.125-0.366
					c-0.224-0.654,0.124-1.365,0.778-1.589l4.453-1.527c0.654-0.224,1.365,0.124,1.589,0.778l0.125,0.366
					c0.224,0.654-0.124,1.365-0.778,1.589l-4.453,1.527C267.421,365.727,266.71,365.379,266.486,364.725z"/>
			</g>
			<g>
				<path style="fill:none;stroke:#3E479B;stroke-miterlimit:10;" d="M327.348,389.344l0.366-0.125
					c0.654-0.224,1.365,0.124,1.589,0.778l1.259,3.671c0.224,0.654-0.124,1.365-0.778,1.589l-0.366,0.125
					c-0.654,0.224-1.365-0.124-1.589-0.778l-1.259-3.671C326.347,390.279,326.695,389.568,327.348,389.344z"/>
				<path style="fill:none;stroke:#3E479B;stroke-miterlimit:10;" d="M297.017,301.427l0.366-0.125
					c0.654-0.224,1.365,0.124,1.589,0.778l1.527,4.453c0.224,0.654-0.124,1.365-0.778,1.589l-0.365,0.125
					c-0.654,0.224-1.365-0.124-1.589-0.778l-1.527-4.453C296.015,302.363,296.363,301.651,297.017,301.427z"/>
			</g>
		</g>
	</g>
</g>
</svg>
